<?xml version="1.0" encoding="utf-8"?>
<!-- Generator: Adobe Illustrator 14.0.0, SVG Export Plug-In . SVG Version: 6.00 Build 43363)  -->
<!DOCTYPE svg PUBLIC "-//W3C//DTD SVG 1.1//EN" "http://www.w3.org/Graphics/SVG/1.1/DTD/svg11.dtd">
<svg version="1.1" id="Camada_1" xmlns:sketch="http://www.bohemiancoding.com/sketch/ns"
	 xmlns="http://www.w3.org/2000/svg" xmlns:xlink="http://www.w3.org/1999/xlink" x="0px" y="0px" width="60px" height="60px"
	 viewBox="0 0 60 60" enable-background="new 0 0 60 60" xml:space="preserve">
<title></title>
<g id="flat">
	<g id="twitter">
		<path id="Twitter" fill="#25B7D3" d="M30,60.067c16.568,0,30-13.432,30-30c0-16.568-13.432-30-30-30S0,13.5,0,30.068
			C0,46.636,13.432,60.067,30,60.067z"/>
	</g>
</g>
<path fill="#FFFFFF" d="M12.424,43.506c-3.729-4.854-2.819-11.811,2.035-15.54L21.05,22.9c4.853-3.729,11.811-2.819,15.54,2.035
	l-4.393,3.376c-1.865-2.426-5.344-2.881-7.771-1.017l-6.591,5.064c-2.427,1.865-2.882,5.344-1.018,7.77
	c1.865,2.428,5.344,2.883,7.771,1.018l5.574,2.705l-2.197,1.689C23.111,49.27,16.154,48.359,12.424,43.506z M29.838,16.148
	l2.197-1.688c4.854-3.729,11.811-2.819,15.541,2.035c3.729,4.853,2.818,11.811-2.035,15.541L38.949,37.1
	c-4.854,3.73-11.811,2.818-15.54-2.035l4.394-3.377c1.865,2.428,5.343,2.883,7.771,1.018l6.59-5.064
	c2.428-1.864,2.883-5.344,1.018-7.771c-1.865-2.426-5.344-2.881-7.77-1.017L29.838,16.148z"/>
</svg>
